<svg xmlns="http://www.w3.org/2000/svg" viewBox="0 0 160 160"><defs><style>.cls-1{fill:#fff;}.cls-2{fill:#007ec4;}</style></defs><title>icon-suche</title><g id="Ebene_2" data-name="Ebene 2"><g id="Ebene_1-2" data-name="Ebene 1"><circle class="cls-1" cx="80" cy="80" r="80"/><path class="cls-2" d="M72.63,104.52A30.85,30.85,0,0,1,60.2,102a31.92,31.92,0,0,1-17-17,31.8,31.8,0,0,1,0-24.86,32,32,0,0,1,17-17,31.8,31.8,0,0,1,24.86,0,32,32,0,0,1,17,17,30.84,30.84,0,0,1,2.53,12.43,33.72,33.72,0,0,1-.38,5.14,25.3,25.3,0,0,1-1.3,5A32.25,32.25,0,0,1,101,87.25a38.3,38.3,0,0,1-2.53,4.22l19.49,19.34a7,7,0,0,1,1,1.69,4.54,4.54,0,0,1,0,3.68,7.14,7.14,0,0,1-1,1.69,7.38,7.38,0,0,1-1.69,1,4.89,4.89,0,0,1-1.84.38,4.81,4.81,0,0,1-1.84-.38,7,7,0,0,1-1.69-1L91.51,98.38a39.25,39.25,0,0,1-4.22,2.53,30.75,30.75,0,0,1-4.53,1.92,24.62,24.62,0,0,1-5,1.3A33.62,33.62,0,0,1,72.63,104.52Zm0-58.93a26.31,26.31,0,0,0-10.51,2.14A28.11,28.11,0,0,0,47.77,62.08a26.79,26.79,0,0,0,0,21A28,28,0,0,0,62.12,97.46a26.79,26.79,0,0,0,21,0A28.11,28.11,0,0,0,97.5,83.11a26.9,26.9,0,0,0,0-21A28.21,28.21,0,0,0,83.15,47.73,26.36,26.36,0,0,0,72.63,45.59Z"/></g></g></svg>